<svg xmlns="http://www.w3.org/2000/svg" viewBox="0 0 640 360" role="img" aria-label="ESP32 development board placeholder cover">
  <rect width="640" height="360" fill="#0c130e"/>
  <g stroke="#0d3d24" stroke-width="1">
    <path d="M0 60h640M0 120h640M0 180h640M0 240h640M0 300h640"/>
    <path d="M80 0v360M160 0v360M240 0v360M320 0v360M400 0v360M480 0v360M560 0v360"/>
  </g>
  <rect x="120" y="70" width="400" height="220" rx="10" fill="#062015" stroke="#00a651" stroke-width="2"/>
  <rect x="150" y="100" width="120" height="100" rx="4" fill="#0c130e" stroke="#00a651" stroke-width="2"/>
  <rect x="160" y="110" width="100" height="60" rx="3" fill="#1b2b21" stroke="#7d9486" stroke-width="1"/>
  <g fill="#00a651">
    <circle cx="300" cy="120" r="5"/>
    <circle cx="330" cy="120" r="5"/>
    <circle cx="360" cy="120" r="5"/>
    <circle cx="390" cy="120" r="5"/>
    <circle cx="420" cy="120" r="5"/>
    <circle cx="450" cy="120" r="5"/>
    <circle cx="480" cy="120" r="5"/>
    <circle cx="300" cy="260" r="5"/>
    <circle cx="330" cy="260" r="5"/>
    <circle cx="360" cy="260" r="5"/>
    <circle cx="390" cy="260" r="5"/>
    <circle cx="420" cy="260" r="5"/>
    <circle cx="450" cy="260" r="5"/>
    <circle cx="480" cy="260" r="5"/>
  </g>
  <g stroke="#00a651" stroke-width="2" fill="none">
    <path d="M300 120v-15M330 120v-15M360 120v-15M390 120v-15M420 120v-15M450 120v-15M480 120v-15"/>
    <path d="M300 260v15M330 260v15M360 260v15M390 260v15M420 260v15M450 260v15M480 260v15"/>
    <path d="M270 150h40v40h-30" stroke="#c97b2d"/>
    <path d="M150 240h60v-30" stroke="#c97b2d"/>
  </g>
  <rect x="330" y="160" width="90" height="44" rx="6" fill="#0c130e" stroke="#7d9486" stroke-width="1.5"/>
  <text x="375" y="186" font-family="monospace" font-size="14" fill="#7d9486" text-anchor="middle">USB-C</text>
  <text x="320" y="330" font-family="monospace" font-size="18" fill="#00a651" text-anchor="middle">ESP32 DEV BOARD</text>
</svg>
